<svg width="24" height="14" viewBox="0 0 24 14" fill="none" xmlns="http://www.w3.org/2000/svg">
<path d="M12 3.90711L2.8125 13.0946C2.5 13.4071 2.13 13.5584 1.7025 13.5484C1.275 13.5384 0.90542 13.3767 0.593753 13.0634C0.282087 12.75 0.125837 12.38 0.125003 11.9534C0.12417 11.5267 0.28042 11.1571 0.593753 10.8446L10.2188 1.25086C10.4688 1.00086 10.75 0.813364 11.0625 0.688364C11.375 0.563364 11.6875 0.500862 12 0.500862C12.3125 0.500862 12.625 0.563364 12.9375 0.688364C13.25 0.813364 13.5313 1.00086 13.7813 1.25086L23.4063 10.8759C23.7188 11.1884 23.87 11.5529 23.86 11.9696C23.85 12.3863 23.6883 12.7509 23.375 13.0634C23.0617 13.3759 22.6917 13.5321 22.265 13.5321C21.8383 13.5321 21.4688 13.3759 21.1563 13.0634L12 3.90711Z" fill="#1A1A1A"/>
</svg>
